<?xml version="1.0" encoding="UTF-8"?>
<svg viewBox="0 0 1024 1024" xmlns="http://www.w3.org/2000/svg">
  <g transform="translate(0,1024) scale(0.1,-0.1)" stroke="none">
    <defs>
      <linearGradient id="honey" x1="0" y1="8930" x2="0" y2="740" gradientUnits="userSpaceOnUse">
        <stop offset="0%" stop-color="#FFE082"/>
        <stop offset="45%" stop-color="#FFB81C"/>
        <stop offset="85%" stop-color="#C8861C"/>
        <stop offset="100%" stop-color="#8B6F2A"/>
      </linearGradient>
    </defs>
    <path fill="url(#honey)" d="M6890 8920 c0 -6 -57 -10 -150 -10 -93 0 -150 -4 -150 -10 0 -5 -9
-10 -20 -10 -11 0 -20 -4 -20 -10 0 -5 -13 -10 -30 -10 -16 0 -30 -4 -30 -10
0 -6 -73 -10 -200 -10 -127 0 -200 -4 -200 -10 0 -6 -53 -10 -140 -10 -87 0
-140 -4 -140 -10 0 -6 -93 -10 -260 -10 -167 0 -260 -4 -260 -10 0 -6 -53 -10
-140 -10 -87 0 -140 -4 -140 -10 0 -5 -7 -10 -16 -10 -18 0 -44 -23 -44 -40 0
-17 -26 -40 -44 -40 -9 0 -16 -4 -16 -10 0 -5 -13 -10 -30 -10 -16 0 -30 -4
-30 -10 0 -5 -13 -10 -30 -10 -16 0 -30 -4 -30 -10 0 -5 -25 -10 -56 -10 -64
0 -84 -14 -84 -60 0 -34 -19 -60 -44 -60 -9 0 -16 -4 -16 -10 0 -5 -12 -10
-26 -10 -29 0 -54 -21 -54 -44 0 -9 -4 -16 -10 -16 -6 0 -10 -67 -10 -180 0
-113 4 -180 10 -180 6 0 10 -33 10 -80 0 -47 4 -80 10 -80 6 0 10 -9 10 -20 0
-13 7 -20 20 -20 11 0 20 -4 20 -10 0 -5 23 -10 50 -10 28 0 50 -4 50 -10 0
-6 60 -10 160 -10 100 0 160 4 160 10 0 6 103 10 290 10 187 0 290 -4 290 -10
0 -5 9 -10 20 -10 13 0 20 -7 20 -20 0 -11 5 -20 10 -20 6 0 10 -27 10 -60 0
-33 4 -60 10 -60 6 0 10 -13 10 -30 0 -16 5 -30 10 -30 6 0 10 -12 10 -26 0
-26 20 -54 40 -54 24 0 40 -30 40 -74 0 -25 5 -46 10 -46 6 0 10 -40 10 -100
0 -60 4 -100 10 -100 6 0 10 -47 10 -120 0 -73 4 -120 10 -120 6 0 10 -16 10
-36 0 -27 7 -43 30 -64 18 -17 30 -38 30 -54 0 -14 5 -26 10 -26 6 0 10 -9 10
-20 0 -11 5 -20 10 -20 6 0 10 -9 10 -20 0 -11 5 -20 10 -20 6 0 10 -57 10
-150 0 -93 4 -150 10 -150 6 0 10 -37 10 -90 0 -53 4 -90 10 -90 6 0 10 -25
10 -56 0 -57 14 -84 44 -84 9 0 16 -4 16 -10 0 -5 9 -10 20 -10 18 0 20 -7 20
-60 0 -33 4 -60 10 -60 6 0 10 -43 10 -110 0 -67 4 -110 10 -110 6 0 10 -83
10 -230 0 -147 -4 -230 -10 -230 -6 0 -10 -30 -10 -70 l0 -70 -30 0 c-16 0
-30 -4 -30 -10 0 -5 -12 -10 -26 -10 -35 0 -54 -22 -54 -64 0 -20 -4 -36 -10
-36 -5 0 -10 -9 -10 -20 0 -18 -7 -20 -60 -20 -33 0 -60 -4 -60 -10 0 -5 -13
-10 -30 -10 -16 0 -30 -4 -30 -10 0 -5 -13 -10 -30 -10 -16 0 -30 -4 -30 -10
0 -5 -13 -10 -30 -10 -20 0 -30 -5 -30 -15 0 -9 -11 -27 -25 -40 -21 -22 -33
-25 -100 -25 -43 0 -75 -4 -75 -10 0 -6 -80 -10 -220 -10 -140 0 -220 4 -220
10 0 6 -29 10 -66 10 -67 0 -94 13 -94 44 0 9 -4 16 -10 16 -5 0 -10 9 -10 20
0 17 -7 20 -40 20 -22 0 -40 5 -40 10 0 6 -22 10 -50 10 -27 0 -50 5 -50 10 0
6 -27 10 -60 10 l-60 0 0 30 c0 17 -4 30 -10 30 -5 0 -10 18 -10 40 0 33 -3
40 -20 40 -11 0 -20 5 -20 10 0 6 -12 10 -26 10 -37 0 -54 22 -54 70 0 50 18
70 60 70 34 0 60 19 60 44 0 9 5 16 10 16 6 0 10 16 10 36 0 50 18 64 84 64
31 0 56 5 56 10 0 6 18 10 40 10 22 0 40 5 40 10 0 6 12 10 26 10 33 0 54 21
54 54 0 14 5 26 10 26 6 0 10 9 10 20 0 18 7 20 56 20 57 0 84 14 84 44 0 9 5
16 10 16 6 0 10 53 10 140 0 87 -4 140 -10 140 -6 0 -10 29 -10 66 0 67 -13
94 -44 94 -9 0 -16 5 -16 10 0 6 -13 10 -30 10 -27 0 -30 3 -30 30 0 17 -4 30
-10 30 -5 0 -10 7 -10 16 0 31 -27 44 -94 44 -37 0 -66 4 -66 10 0 6 -33 10
-80 10 -47 0 -80 4 -80 10 0 6 -9 10 -20 10 -11 0 -20 5 -20 10 0 6 -9 10 -20
10 -11 0 -20 5 -20 10 0 6 -12 10 -26 10 -16 0 -37 12 -54 30 -26 27 -34 30
-94 30 -37 0 -66 4 -66 10 0 6 -60 10 -160 10 -100 0 -160 -4 -160 -10 0 -6
-30 -10 -70 -10 -40 0 -70 -4 -70 -10 0 -5 -8 -10 -18 -10 -10 0 -24 -9 -32
-20 -8 -12 -26 -20 -42 -20 -15 0 -28 -4 -28 -10 0 -5 -9 -10 -20 -10 -11 0
-20 -4 -20 -10 0 -5 -9 -10 -20 -10 -11 0 -20 -4 -20 -10 0 -6 -33 -10 -80
-10 -47 0 -80 -4 -80 -10 0 -6 -29 -10 -66 -10 -63 0 -67 -1 -104 -40 -21 -22
-45 -40 -52 -40 -7 0 -20 -9 -28 -20 -8 -11 -22 -20 -32 -20 -10 0 -18 -4 -18
-10 0 -5 -9 -10 -20 -10 -11 0 -20 -4 -20 -10 0 -5 -25 -10 -56 -10 -57 0 -84
-14 -84 -44 0 -9 -4 -16 -10 -16 -5 0 -10 -7 -10 -16 0 -23 -25 -44 -54 -44
-14 0 -26 -4 -26 -10 0 -5 -9 -10 -20 -10 -11 0 -20 -4 -20 -10 0 -5 -9 -10
-20 -10 -11 0 -20 -4 -20 -10 0 -5 -11 -10 -25 -10 -29 0 -75 -40 -75 -65 0
-8 -4 -15 -10 -15 -5 0 -10 -7 -10 -16 0 -26 -26 -44 -64 -44 -20 0 -36 -4
-36 -10 0 -5 -9 -10 -20 -10 -13 0 -20 -7 -20 -20 0 -11 -4 -20 -10 -20 -5 0
-10 -16 -10 -36 0 -45 -19 -64 -64 -64 -20 0 -36 -4 -36 -10 0 -5 -9 -10 -20
-10 -13 0 -20 -7 -20 -20 0 -11 -4 -20 -10 -20 -5 0 -10 -16 -10 -35 0 -38
-36 -85 -65 -85 -8 0 -15 -7 -15 -16 0 -9 -14 -29 -30 -44 -16 -15 -30 -34
-30 -42 0 -7 -9 -20 -20 -28 -16 -11 -20 -26 -20 -68 0 -55 -15 -82 -44 -82
-9 0 -16 -4 -16 -10 0 -5 -12 -10 -26 -10 -42 0 -54 -21 -54 -94 0 -37 -4 -66
-10 -66 -6 0 -10 -33 -10 -80 0 -47 -4 -80 -10 -80 -6 0 -10 -27 -10 -60 0
-33 -4 -60 -10 -60 -5 0 -10 -8 -10 -18 0 -10 -9 -24 -20 -32 -11 -8 -20 -22
-20 -32 0 -10 -4 -18 -10 -18 -6 0 -10 -47 -10 -120 0 -73 4 -120 10 -120 6 0
10 -22 10 -50 0 -27 5 -50 10 -50 6 0 10 -8 10 -18 0 -10 9 -24 20 -32 16 -12
20 -26 20 -72 0 -32 4 -58 10 -58 6 0 10 -42 10 -105 0 -63 4 -105 10 -105 6
0 10 -35 10 -85 0 -50 4 -85 10 -85 6 0 10 -13 10 -30 0 -16 5 -30 10 -30 6 0
10 -7 10 -15 0 -18 44 -65 60 -65 27 0 40 -30 40 -94 0 -37 4 -66 10 -66 6 0
10 -22 10 -50 0 -27 5 -50 10 -50 6 0 10 -7 10 -16 0 -23 25 -44 54 -44 14 0
26 -4 26 -10 0 -5 9 -10 20 -10 18 0 20 -7 20 -80 0 -47 4 -80 10 -80 6 0 10
-82 10 -225 l0 -226 25 -24 c13 -14 31 -25 40 -25 8 0 15 -9 15 -20 0 -11 5
-20 10 -20 6 0 10 -7 10 -15 0 -20 65 -85 85 -85 8 0 15 -4 15 -10 0 -5 18
-10 40 -10 22 0 40 5 40 10 0 6 14 10 30 10 17 0 30 5 30 10 0 6 21 10 46 10
60 0 74 15 74 84 0 31 5 56 10 56 6 0 10 27 10 60 0 33 4 60 10 60 6 0 10 9
10 20 0 19 7 20 139 20 l139 0 6 -42 c3 -24 8 -64 12 -90 3 -27 10 -48 15 -48
5 0 9 -27 9 -60 0 -33 4 -60 10 -60 6 0 10 -9 10 -20 0 -11 5 -20 10 -20 6 0
10 -12 10 -26 0 -17 16 -41 50 -74 34 -33 50 -57 50 -74 0 -14 5 -26 10 -26 6
0 10 -7 10 -16 0 -28 27 -44 74 -44 25 0 46 -4 46 -10 0 -6 29 -10 66 -10 67
0 94 13 94 44 0 9 5 16 10 16 6 0 10 12 10 26 0 35 22 54 64 54 20 0 36 5 36
10 0 6 9 10 20 10 17 0 20 7 20 50 0 28 5 50 10 50 6 0 10 9 10 20 0 13 7 20
20 20 11 0 20 5 20 10 0 6 30 10 70 10 40 0 70 -4 70 -10 0 -6 30 -10 70 -10
40 0 70 -4 70 -10 0 -5 7 -10 15 -10 9 0 31 -16 50 -35 27 -26 35 -43 35 -70
0 -19 5 -35 10 -35 6 0 10 -20 10 -45 0 -35 -6 -52 -25 -70 -13 -14 -29 -25
-35 -25 -17 0 -40 -26 -40 -44 0 -9 -4 -16 -10 -16 -6 0 -10 -30 -10 -70 0
-40 -4 -70 -10 -70 -6 0 -10 -29 -10 -66 0 -60 -3 -68 -30 -94 -16 -15 -30
-35 -30 -44 0 -9 -4 -16 -10 -16 -5 0 -10 -7 -10 -16 0 -9 -13 -29 -30 -44
l-30 -28 0 -189 c0 -125 -4 -183 -10 -173 -8 12 -10 11 -10 -7 0 -13 5 -23 10
-23 6 0 10 -43 10 -110 l0 -110 30 0 c17 0 30 -4 30 -10 0 -5 12 -10 26 -10
35 0 54 -22 54 -64 0 -20 5 -36 10 -36 6 0 10 -9 10 -20 0 -16 7 -20 30 -20
17 0 30 -4 30 -10 0 -5 23 -10 50 -10 28 0 50 -4 50 -10 0 -5 9 -10 20 -10 11
0 20 -4 20 -10 0 -6 43 -10 110 -10 67 0 110 4 110 10 0 6 9 10 20 10 11 0 20
5 20 10 0 6 27 10 60 10 33 0 60 4 60 10 0 6 7 10 16 10 27 0 44 27 44 70 0
51 18 70 64 70 20 0 36 5 36 10 0 6 9 10 20 10 18 0 20 7 21 73 1 39 1 75 0
80 0 4 3 7 9 7 6 0 10 50 10 130 0 80 4 130 10 130 6 0 10 37 10 90 0 53 -4
90 -10 90 -6 0 -10 53 -10 140 0 87 -4 140 -10 140 -5 0 -10 23 -10 50 0 28
-4 50 -10 50 -6 0 -10 28 -10 65 0 37 4 65 10 65 6 0 10 23 10 51 0 52 15 79
44 79 9 0 16 5 16 10 0 6 14 10 30 10 17 0 30 -4 30 -10 0 -5 9 -10 20 -10 13
0 20 -7 20 -20 0 -11 5 -20 10 -20 6 0 10 -18 10 -40 0 -22 5 -40 10 -40 6 0
10 -9 10 -20 0 -11 5 -20 10 -20 6 0 10 -27 10 -60 0 -33 -4 -60 -10 -60 -5 0
-10 -22 -10 -50 0 -27 -4 -50 -10 -50 -6 0 -10 -69 -10 -186 0 -201 3 -214 54
-214 19 0 26 -5 26 -20 0 -11 5 -20 10 -20 6 0 10 -13 10 -30 0 -16 5 -30 10
-30 6 0 10 -9 10 -20 0 -11 5 -20 10 -20 6 0 10 -9 10 -20 0 -11 5 -20 10 -20
6 0 10 -21 10 -46 0 -58 16 -74 74 -74 25 0 46 -4 46 -10 0 -5 14 -10 30 -10
17 0 30 -4 30 -10 0 -6 40 -10 100 -10 60 0 100 4 100 10 0 6 18 10 40 10 22
0 40 5 40 10 0 6 7 10 15 10 20 0 125 105 125 125 0 8 5 15 10 15 6 0 10 9 10
20 0 11 5 20 10 20 6 0 10 33 10 80 0 47 4 80 10 80 6 0 10 40 10 100 0 60 -4
100 -10 100 -6 0 -10 37 -10 90 0 53 -4 90 -10 90 -5 0 -10 16 -10 36 0 27 -7
43 -30 64 -17 15 -30 33 -30 40 0 6 -18 29 -40 50 l-40 38 0 86 c0 72 3 86 16
86 20 0 44 24 44 44 0 11 9 16 26 16 16 0 37 12 54 30 22 24 36 30 70 30 43 0
70 -17 70 -44 0 -9 5 -16 10 -16 6 0 10 -11 10 -25 0 -26 39 -75 60 -75 14 0
80 -66 80 -80 0 -17 26 -40 44 -40 9 0 16 -4 16 -10 0 -6 57 -10 150 -10 93 0
150 4 150 10 0 6 25 10 56 10 69 0 84 13 84 77 0 35 3 44 10 33 8 -12 10 -9
10 13 0 20 12 40 40 67 24 24 40 48 40 62 0 13 9 30 20 38 15 11 20 26 20 62
0 26 5 48 10 48 6 0 10 37 10 90 0 53 4 90 10 90 6 0 10 9 10 20 0 16 7 20 30
20 17 0 30 5 30 10 0 6 16 10 36 10 44 0 64 19 64 60 0 34 19 60 44 60 9 0 16
5 16 10 0 6 17 10 38 10 26 0 42 6 52 20 8 11 20 20 28 20 7 0 44 32 82 70 50
50 76 70 95 70 14 0 25 5 25 10 0 6 40 10 100 10 60 0 100 -4 100 -10 0 -5 9
-10 20 -10 11 0 20 -4 20 -10 0 -5 18 -10 40 -10 22 0 40 -4 40 -10 0 -6 37
-10 90 -10 53 0 90 4 90 10 0 6 14 10 30 10 17 0 30 5 30 10 0 6 9 10 20 10
11 0 20 5 20 10 0 6 7 10 15 10 26 0 85 66 85 95 0 14 5 25 10 25 6 0 10 77
10 210 0 133 4 210 10 210 6 0 10 12 10 26 0 29 21 54 44 54 9 0 16 5 16 10 0
6 7 10 16 10 23 0 44 25 44 54 0 14 5 26 10 26 6 0 10 14 10 30 0 17 5 30 10
30 6 0 10 18 10 40 0 22 5 40 10 40 6 0 10 14 10 30 0 27 3 30 30 30 17 0 30
5 30 10 0 6 7 10 16 10 30 0 43 26 45 94 1 36 6 66 11 66 4 0 8 30 8 66 0 63
1 67 40 104 22 21 40 46 40 54 0 9 5 16 10 16 6 0 10 9 10 20 0 11 5 20 10 20
6 0 10 9 10 20 0 11 5 20 10 20 6 0 10 60 10 160 0 100 4 160 10 160 6 0 10
80 10 220 0 140 -4 220 -10 220 -6 0 -10 63 -10 170 0 129 -3 170 -12 170 -9
0 -8 4 2 10 10 6 11 10 3 10 -8 0 -13 15 -13 40 0 22 -4 40 -10 40 -5 0 -10 7
-10 16 0 18 -23 44 -40 44 -24 0 -40 30 -40 74 0 25 -4 46 -10 46 -6 0 -10 37
-10 90 0 53 -4 90 -10 90 -6 0 -10 32 -10 75 0 67 -3 79 -25 100 -13 14 -29
25 -35 25 -25 0 -60 49 -60 85 0 19 -4 35 -10 35 -5 0 -10 14 -10 30 0 17 -4
30 -10 30 -5 0 -10 25 -10 55 0 46 -4 60 -25 80 -13 14 -31 25 -40 25 -8 0
-15 8 -15 18 0 10 -9 24 -20 32 -12 8 -20 26 -20 42 0 15 -4 28 -10 28 -5 0
-10 14 -10 30 0 17 -4 30 -10 30 -5 0 -10 20 -10 45 0 35 -6 52 -25 70 -13 14
-31 25 -40 25 -8 0 -15 8 -15 18 0 10 -9 24 -20 32 -12 8 -20 26 -20 42 0 15
-4 28 -10 28 -5 0 -10 9 -10 20 0 11 -4 20 -10 20 -5 0 -10 25 -10 56 0 57
-14 84 -44 84 -9 0 -16 5 -16 10 0 6 -7 10 -16 10 -26 0 -44 26 -44 64 0 20
-4 36 -10 36 -5 0 -10 14 -10 30 0 17 -4 30 -10 30 -5 0 -10 25 -10 55 0 46
-4 60 -25 80 -13 14 -31 25 -40 25 -8 0 -15 8 -15 18 0 10 -9 24 -20 32 -12 8
-20 26 -20 42 0 15 -4 28 -10 28 -5 0 -10 23 -10 50 0 28 -4 50 -10 50 -5 0
-10 18 -10 40 0 22 -4 40 -10 40 -5 0 -10 8 -10 18 0 10 -9 24 -20 32 -17 12
-20 26 -20 97 l0 84 45 44 c36 36 51 45 80 45 19 0 35 5 35 10 0 6 9 10 20 10
13 0 20 7 20 20 0 11 5 20 10 20 6 0 10 100 10 280 l0 280 -30 0 c-16 0 -30 5
-30 10 0 6 -16 10 -36 10 -40 0 -64 19 -64 50 0 25 -22 50 -44 50 -9 0 -16 5
-16 10 0 6 -100 10 -280 10 -180 0 -280 -4 -280 -10z"/>
  </g>
</svg>
